<svg width="528" height="1024" viewBox="0 0 528 1024" fill="none" xmlns="http://www.w3.org/2000/svg">
<path d="M528 0H0V1024H528V0Z" fill="#3A287C"/>
<path d="M729.276 815.279L322.719 627.854C306.855 620.54 285.576 625.999 275.193 640.047L67.5525 920.965C57.169 935.012 61.612 952.329 77.4762 959.643L484.033 1147.07C499.898 1154.38 521.176 1148.92 531.559 1134.87L739.2 853.957C749.583 839.91 745.14 822.593 729.276 815.279Z" stroke="white"/>
<path d="M348.985 767.313C352.161 763.017 358.669 761.347 363.521 763.584L529.023 839.881C533.875 842.118 535.234 847.414 532.058 851.711L516.172 873.203C512.996 877.5 506.488 879.17 501.636 876.933L336.134 800.636C331.282 798.399 329.923 793.102 333.099 788.805L348.985 767.313Z" stroke="white"/>
<path d="M308.512 822.07C311.688 817.773 318.196 816.103 323.048 818.34L488.55 894.637C493.402 896.874 494.761 902.171 491.585 906.467L475.699 927.959C472.523 932.256 466.015 933.926 461.162 931.689L295.661 855.392C290.809 853.155 289.45 847.858 292.626 843.562L308.512 822.07Z" stroke="white"/>
<path d="M269.537 874.798C272.713 870.501 279.221 868.831 284.074 871.068L449.575 947.366C454.427 949.602 455.786 954.899 452.61 959.196L436.724 980.688C433.548 984.985 427.04 986.655 422.188 984.418L256.687 908.12C251.834 905.883 250.475 900.587 253.651 896.29L269.537 874.798Z" stroke="white"/>
<path d="M667.358 850.972L392.835 724.415C387.983 722.178 381.474 723.848 378.299 728.144L376.773 730.208C373.597 734.504 374.956 739.801 379.809 742.038L654.332 868.595C659.184 870.832 665.693 869.162 668.869 864.865L670.394 862.802C673.57 858.505 672.211 853.209 667.358 850.972Z" stroke="white"/>
<path d="M638.189 890.208L565.824 856.847C560.972 854.61 554.463 856.28 551.287 860.576L488.432 945.613C485.256 949.91 486.615 955.206 491.468 957.443L563.833 990.804C568.686 993.041 575.194 991.371 578.37 987.075L641.225 902.038C644.401 897.741 643.042 892.445 638.189 890.208Z" stroke="white"/>
<path d="M351.984 705.583L314.295 688.208C309.174 685.847 302.306 687.609 298.954 692.144L152.666 890.058C149.314 894.592 150.748 900.182 155.869 902.543L193.558 919.918C198.679 922.279 205.548 920.516 208.9 915.982L355.188 718.068C358.539 713.533 357.105 707.944 351.984 705.583Z" stroke="white"/>
<path d="M414.268 57.0958L-97.5909 -89.9303C-117.614 -95.6818 -130.69 -83.7534 -126.795 -63.2875L-49.114 344.944C-45.2196 365.41 -25.8303 386.663 -5.8068 392.415L506.052 539.441C526.076 545.192 539.151 533.264 535.257 512.798L457.575 104.567C453.681 84.1008 434.292 62.8473 414.268 57.0958Z" stroke="white"/>
<path d="M320.859 268.86L83.2984 200.623C77.139 198.854 73.1169 202.523 74.3148 208.819L88.0067 280.772C89.2047 287.068 95.169 293.606 101.328 295.375L338.889 363.612C345.049 365.381 349.071 361.712 347.873 355.416L334.181 283.463C332.983 277.167 327.019 270.629 320.859 268.86Z" stroke="white"/>
<path d="M50.3652 82.9581C49.1672 76.6626 53.1893 72.9933 59.3487 74.7625L167.109 105.715C173.268 107.485 179.232 114.022 180.43 120.318L194.122 192.271C195.32 198.567 191.298 202.236 185.139 200.467L77.3787 169.514C71.2193 167.745 65.255 161.207 64.057 154.912L50.3652 82.9581Z" stroke="white"/>
<path d="M394.148 117.135L48.5206 17.8577C42.3611 16.0885 38.3391 19.7578 39.537 26.0533L40.1076 29.0516C41.3055 35.3471 47.2699 41.8849 53.4293 43.6541L399.056 142.932C405.216 144.701 409.238 141.032 408.04 134.736L407.469 131.738C406.272 125.442 400.307 118.905 394.148 117.135Z" stroke="white"/>
<path d="M404.976 174.041L347.729 157.597C341.57 155.828 337.547 159.497 338.745 165.793L372.565 343.522C373.763 349.818 379.727 356.356 385.887 358.125L443.134 374.569C449.294 376.338 453.316 372.669 452.118 366.373L418.298 188.643C417.1 182.348 411.136 175.81 404.976 174.041Z" stroke="white"/>
<path d="M296.91 143L216.09 119.785C209.93 118.016 205.908 121.685 207.106 127.981L220.798 199.934C221.996 206.23 227.961 212.768 234.12 214.537L314.94 237.752C321.099 239.521 325.121 235.851 323.923 229.556L310.231 157.602C309.033 151.307 303.069 144.769 296.91 143Z" stroke="white"/>
<path d="M-2.91035 3.08475L-50.3613 -10.545C-56.8589 -12.4114 -61.1018 -8.54067 -59.838 -1.89954L-5.10952 285.711C-3.8458 292.352 2.44597 299.248 8.94353 301.115L56.3945 314.745C62.8921 316.611 67.135 312.74 65.8712 306.099L11.1427 18.4889C9.87899 11.8478 3.58722 4.9511 -2.91035 3.08475Z" stroke="white"/>
<path d="M163.82 568.692C161.471 573.119 155.573 575.967 150.646 575.054L91.4794 564.088C86.5523 563.175 84.462 558.846 86.8108 554.42L90.6567 547.171C93.0054 542.745 98.9035 539.897 103.831 540.81L162.997 551.776C167.924 552.689 170.014 557.017 167.665 561.444L163.82 568.692Z" stroke="white"/>
<path d="M114.464 661.713C112.115 666.14 106.217 668.988 101.29 668.075L8.50618 650.878C3.57914 649.965 1.48893 645.637 3.83757 641.21L9.60649 630.338C11.9551 625.911 17.8532 623.063 22.7803 623.976L115.564 641.173C120.491 642.086 122.581 646.414 120.232 650.841L114.464 661.713Z" stroke="white"/>
<path d="M93.9519 700.372C91.6032 704.798 85.7051 707.646 80.7781 706.733L-12.0055 689.537C-16.9326 688.624 -19.0228 684.295 -16.6741 679.869L-12.8282 672.62C-10.4796 668.194 -4.58146 665.346 0.345575 666.259L93.1292 683.455C98.0562 684.368 100.146 688.697 97.7978 693.124L93.9519 700.372Z" stroke="white"/>
<path d="M-23.8386 491.937L199.38 533.308C203.564 534.083 205.339 537.76 203.345 541.519L102.709 731.186C100.715 734.945 95.7054 737.364 91.521 736.589L-131.697 695.217C-135.882 694.442 -137.657 690.766 -135.662 687.006L-35.0267 497.339C-33.032 493.58 -28.023 491.161 -23.8386 491.937Z" stroke="white"/>
<path d="M159.523 624.11L-78.8485 579.93L-135.662 687.007C-137.657 690.766 -135.882 694.442 -131.697 695.218L91.5211 736.589C95.7055 737.364 100.715 734.945 102.709 731.186L159.523 624.11Z" stroke="white"/>
</svg>
